<?xml version="1.0" encoding="utf-8"?>
<!-- Generator: Adobe Illustrator 27.5.0, SVG Export Plug-In . SVG Version: 6.00 Build 0)  -->
<svg version="1.1" id="Layer_1" xmlns="http://www.w3.org/2000/svg" xmlns:xlink="http://www.w3.org/1999/xlink" x="0px" y="0px"
	 viewBox="0 0 20 20" style="enable-background:new 0 0 20 20;" xml:space="preserve">
<style type="text/css">
	.st0{fill:#A8A8A8;}
</style>
<path id="calendar_1_" class="st0" d="M17.9,1.4h-0.7V0.7c0-0.4-0.3-0.7-0.7-0.7s-0.7,0.3-0.7,0.7v0.7h-1.4V0.7
	C14.3,0.3,14,0,13.6,0c-0.4,0-0.7,0.3-0.7,0.7v0.7H7.1V0.7C7.1,0.3,6.8,0,6.4,0C6,0,5.7,0.3,5.7,0.7v0.7H4.3V0.7C4.3,0.3,4,0,3.6,0
	S2.9,0.3,2.9,0.7v0.7H2.1C1,1.4,0,2.4,0,3.6v14.3C0,19,1,20,2.1,20h15.7c1.2,0,2.1-1,2.1-2.1V3.6C20,2.4,19,1.4,17.9,1.4z M2.1,2.9
	h0.7v0.7c0,0.4,0.3,0.7,0.7,0.7S4.3,4,4.3,3.6V2.9h1.4v0.7C5.7,4,6,4.3,6.4,4.3S7.1,4,7.1,3.6l0,0V2.9h5.7v0.7
	c0,0.4,0.3,0.7,0.7,0.7s0.7-0.3,0.7-0.7V2.9h1.4v0.7c0,0.4,0.3,0.7,0.7,0.7s0.7-0.3,0.7-0.7V2.9h0.7c0.4,0,0.7,0.3,0.7,0.7v2.1H1.4
	V3.6C1.4,3.2,1.7,2.9,2.1,2.9z M18.6,17.9c0,0.4-0.3,0.7-0.7,0.7H2.1c-0.4,0-0.7-0.3-0.7-0.7V7.1h17.1L18.6,17.9z M15.2,10.5
	C15.1,10.4,15,10.2,15,10c0-0.4,0.3-0.7,0.7-0.7c0.4,0,0.7,0.3,0.7,0.7c0,0.4-0.3,0.7-0.7,0.7c0,0,0,0,0,0
	C15.5,10.7,15.3,10.6,15.2,10.5z M15.2,16.2c-0.1-0.1-0.2-0.3-0.2-0.5c0-0.4,0.3-0.7,0.7-0.7c0.4,0,0.7,0.3,0.7,0.7
	c0,0.4-0.3,0.7-0.7,0.7c0,0,0,0,0,0C15.5,16.4,15.3,16.4,15.2,16.2z M12.4,13.4c-0.3-0.3-0.3-0.7,0-1c0.3-0.3,0.7-0.3,1,0
	c0.1,0.1,0.2,0.3,0.2,0.5c0,0.2-0.1,0.4-0.2,0.5C13.1,13.6,12.6,13.6,12.4,13.4z M12.4,10.5c-0.3-0.3-0.3-0.7,0-1
	c0.3-0.3,0.7-0.3,1,0c0.1,0.1,0.2,0.3,0.2,0.5c0,0.2-0.1,0.4-0.2,0.5C13.1,10.8,12.6,10.8,12.4,10.5z M12.4,16.2
	c-0.3-0.3-0.3-0.7,0-1c0.3-0.3,0.7-0.3,1,0c0.1,0.1,0.2,0.3,0.2,0.5c0,0.4-0.3,0.7-0.7,0.7C12.7,16.4,12.5,16.4,12.4,16.2z
	 M9.5,10.5c-0.1-0.1-0.2-0.3-0.2-0.5c0-0.2,0.1-0.4,0.2-0.5c0.3-0.3,0.7-0.3,1,0c0.3,0.3,0.3,0.7,0,1c-0.1,0.1-0.3,0.2-0.5,0.2
	C9.8,10.7,9.6,10.6,9.5,10.5z M9.5,13.4c-0.1-0.1-0.2-0.3-0.2-0.5c0-0.4,0.3-0.7,0.7-0.7c0.4,0,0.7,0.3,0.7,0.7
	c0,0.2-0.1,0.4-0.2,0.5c-0.1,0.1-0.3,0.2-0.5,0.2C9.8,13.6,9.6,13.5,9.5,13.4z M9.5,16.2c-0.3-0.3-0.3-0.7,0-1c0.3-0.3,0.7-0.3,1,0
	c0.3,0.3,0.3,0.7,0,1C10.2,16.5,9.8,16.5,9.5,16.2z M6.6,10.5c-0.3-0.3-0.3-0.7,0-1c0.3-0.3,0.7-0.3,1,0c0.3,0.3,0.3,0.7,0,1
	C7.4,10.8,6.9,10.8,6.6,10.5z M3.8,10.5c-0.3-0.3-0.3-0.7,0-1c0.3-0.3,0.7-0.3,1,0c0.3,0.3,0.3,0.7,0,1c0,0,0,0,0,0
	c-0.1,0.1-0.3,0.2-0.5,0.2C4.1,10.7,3.9,10.6,3.8,10.5z M6.6,13.4c-0.1-0.1-0.2-0.3-0.2-0.5c0-0.4,0.3-0.7,0.7-0.7
	c0.4,0,0.7,0.3,0.7,0.7c0,0.4-0.3,0.7-0.7,0.7C6.9,13.6,6.8,13.5,6.6,13.4z M3.8,13.4c-0.1-0.1-0.2-0.3-0.2-0.5
	c0-0.2,0.1-0.4,0.2-0.5c0.3-0.3,0.7-0.3,1,0C4.9,12.5,5,12.7,5,12.9c0,0.2-0.1,0.4-0.2,0.5C4.5,13.6,4.1,13.6,3.8,13.4z M6.6,16.2
	c-0.3-0.3-0.3-0.7,0-1c0.3-0.3,0.7-0.3,1,0c0.3,0.3,0.3,0.7,0,1c-0.1,0.1-0.3,0.2-0.5,0.2C7,16.4,6.8,16.4,6.6,16.2z M3.8,16.2
	c-0.3-0.3-0.3-0.7,0-1s0.7-0.3,1,0s0.3,0.7,0,1S4.1,16.5,3.8,16.2L3.8,16.2z M15,12.9c0-0.4,0.3-0.7,0.7-0.7l0,0h0.7
	c0.4,0,0.7,0.3,0.7,0.7c0,0.4-0.3,0.7-0.7,0.7h-0.7C15.3,13.6,15,13.3,15,12.9C15,12.9,15,12.9,15,12.9z"/>
</svg>
