<?xml version="1.0" encoding="utf-8"?>
<!-- Generator: Adobe Illustrator 27.5.0, SVG Export Plug-In . SVG Version: 6.00 Build 0)  -->
<svg version="1.1" id="menu" xmlns="http://www.w3.org/2000/svg" xmlns:xlink="http://www.w3.org/1999/xlink" x="0px" y="0px"
	 viewBox="0 0 20 20" style="enable-background:new 0 0 20 20;" xml:space="preserve">
<style type="text/css">
	.st0{fill:#FFFFFF;}
</style>
<g id="Group_473">
	<path id="Path_577" class="st0" d="M8.1,6.8H1.3C0.6,6.8,0,6.3,0,5.5V1.3C0,0.6,0.6,0,1.3,0h6.8c0.7,0,1.3,0.6,1.3,1.3v4.3
		C9.4,6.3,8.8,6.8,8.1,6.8z M1.3,0.9C1,0.9,0.9,1,0.9,1.3v4.3C0.9,5.8,1,6,1.3,6h6.8c0.2,0,0.4-0.2,0.4-0.4V1.3
		c0-0.2-0.2-0.4-0.4-0.4H1.3z"/>
</g>
<g id="Group_474" transform="translate(0 8.048)">
	<path id="Path_578" class="st0" d="M8.1,12H1.3C0.6,12,0,11.4,0,10.7V1.3C0,0.6,0.6,0,1.3,0h6.8c0.7,0,1.3,0.6,1.3,1.3v9.4
		C9.4,11.4,8.8,12,8.1,12z M1.3,0.9C1,0.9,0.9,1,0.9,1.3v9.4c0,0.2,0.2,0.4,0.4,0.4h6.8c0.2,0,0.4-0.2,0.4-0.4V1.3
		c0-0.2-0.2-0.4-0.4-0.4L1.3,0.9z"/>
</g>
<g id="Group_475" transform="translate(10.609 13.17)">
	<path id="Path_579" class="st0" d="M8.1,6.8H1.3C0.6,6.8,0,6.3,0,5.5V1.3C0,0.6,0.6,0,1.3,0h6.8c0.7,0,1.3,0.6,1.3,1.3v4.3
		C9.4,6.3,8.8,6.8,8.1,6.8z M1.3,0.9C1,0.9,0.9,1,0.9,1.3v4.3C0.9,5.8,1,6,1.3,6h6.8c0.2,0,0.4-0.2,0.4-0.4V1.3
		c0-0.2-0.2-0.4-0.4-0.4H1.3z"/>
</g>
<g id="Group_476" transform="translate(10.609)">
	<path id="Path_580" class="st0" d="M8.1,12H1.3C0.6,12,0,11.4,0,10.7V1.3C0,0.6,0.6,0,1.3,0h6.8c0.7,0,1.3,0.6,1.3,1.3v9.4
		C9.4,11.4,8.8,12,8.1,12z M1.3,0.9C1,0.9,0.9,1,0.9,1.3v9.4c0,0.2,0.2,0.4,0.4,0.4h6.8c0.2,0,0.4-0.2,0.4-0.4V1.3
		c0-0.2-0.2-0.4-0.4-0.4H1.3z"/>
</g>
</svg>
